<?xml version="1.0" encoding="utf-8"?>
<!-- Generator: Adobe Illustrator 24.3.0, SVG Export Plug-In . SVG Version: 6.00 Build 0)  -->
<svg version="1.1" id="Capa_1" xmlns="http://www.w3.org/2000/svg" xmlns:xlink="http://www.w3.org/1999/xlink" x="0px" y="0px"
	 viewBox="0 0 852.4 248" enable-background="new 0 0 852.4 248" xml:space="preserve">
<path fill="#0035AD" d="M823.2,19.8h5.9c2.1,0,3.7,0.8,3.7,3.4s-1.6,3.4-3.7,3.4h-5.9V19.8z M828.7,30.3l4.8,9.5h5.9l-5.1-9.8
	c1.2-0.4,4.5-1.5,4.5-7c0-5.2-2.8-7.3-7-7.3h-13.5v24.1h5v-9.5H828.7z M804.1,27.6c0,14,5.1,25.3,24.2,25.3s24.1-11.2,24.1-25.3
	s-5.1-25.2-24.1-25.2S804.1,13.6,804.1,27.6 M828.3,9.5c15,0,17,8.5,17,18.2s-2,18.2-17,18.2s-17.1-8.5-17.1-18.2
	S813.2,9.5,828.3,9.5"/>
<g>
	<path fill="#0035AD" d="M539.8,165.1V2.3h-39.7V101h-0.8l-39.9-73.8C451.3,12,441.3,2.3,418,2.3h-20.8v162.8h39.7v-99h0.8
		c0,0,39.6,74,39.7,74c8.2,15.4,18.3,24.9,41.4,24.9L539.8,165.1z M244.5,67h-72.6c4.1-23.7,18.4-30,31.8-30H247V2.3h-53.2
		c-43.2,0-66.6,29.1-66.6,81.4s23.4,81.4,66.6,81.4H247v-34.7h-43.3c-23.4,0-29.6-17.2-31.8-29.9h72.6V67z M382.1,130.4h-47.4
		c-22.9,0-33.3-17.2-33.3-46.7S311.8,37,334.7,37h47.4V2.3h-57.3c-43.2,0-66.5,29.1-66.5,81.4s23.3,81.4,66.5,81.4h57.3V130.4z
		 M553,83.7c0,46.4,16.9,83.7,80.2,83.7c63,0,80-37.2,80-83.7c0-46.7-17-83.7-80-83.7C570,0,553,37,553,83.7 M633.2,33.5
		c34.3,0,38.8,23.4,38.8,50.2s-4.5,50.2-38.8,50.2c-34.5,0-39-23.4-39-50.2S598.7,33.5,633.2,33.5 M781.7,165.1h45.1v-34.7h-33.5
		c-20.9,0-27.3-13.6-27.3-27.8V2.3h-39.7v103.8C726.3,146.4,749.3,165.1,781.7,165.1 M66.5,37l57.6,0.1V2.5H2v34.7L26.8,37v69
		c0,40.4,23,59,55.4,59h41.9v-34.7H93.8c-20.9,0-27.3-13.6-27.3-27.8L66.5,37z"/>
	<g>
		<path fill="#0035AD" d="M23,175L13,246.6H0L10.1,175H23z M35.7,174.1c6,0,10.8,0.7,14.3,2.2c3.3,1.3,6,3.9,7.2,7.3
			c1.3,3.4,1.5,8.1,0.6,14c-0.8,6.1-2.2,10.8-4.2,14c-1.8,3.2-4.7,5.5-8.2,6.6c-4.5,1.3-9.1,1.9-13.8,1.8c-2.9,0-5.8-0.1-8.5-0.4
			s-5.4-0.5-7.8-0.9s-4.4-0.7-6.2-1.1c-1.2-0.2-2.4-0.6-3.5-1.1l0.6-6.8h24.5c2.6,0.1,5.2-0.3,7.6-1.1c1.9-0.8,3.4-2.2,4.3-3.9
			c1.2-2.6,2-5.4,2.3-8.3c0.5-2.5,0.5-5,0-7.5c-0.4-1.6-1.5-3-3.1-3.6c-2.1-0.8-4.4-1.1-6.7-1c-6.1,0-11.3,0-15.7,0.1
			c-4.4,0.1-7.3,0.2-8.9,0.4l-0.6-9.7c2.8-0.3,5.4-0.5,7.8-0.6c2.4-0.1,5-0.2,7.8-0.3S31.8,174.1,35.7,174.1L35.7,174.1z"/>
		<path fill="#0035AD" d="M132,175c1.1,0,2.1,0.4,2.9,1c0.8,0.7,1.3,1.6,1.5,2.7l12.2,67.9h-13l-8.4-55.2c-0.1-1.1-0.3-2.2-0.4-3.4
			c-0.1-1.1-0.2-2.2-0.3-3.3h-3.1c-0.3,1-0.7,2.1-1.1,3.2c-0.4,1.2-0.9,2.3-1.3,3.4l-24,55.2H83.2l31.2-68.4c0.3-1,1-1.9,1.9-2.4
			c0.9-0.5,1.9-0.8,2.9-0.8H132z M138.4,216l-1.2,10.4h-36.8l1.3-10.4H138.4z"/>
		<path fill="#0035AD" d="M219.2,173.7c3.6,0.1,7.3,0.3,11.2,0.6c3.8,0.3,7.5,1,11.2,2l-1.2,8.8l-7-0.2c-2.4-0.1-4.8-0.1-7.3-0.2
			c-2.5,0-5,0-7.5,0c-2,0-3.8,0-5.3,0.2c-1.4,0.1-2.7,0.4-3.9,0.9c-1.1,0.6-2,1.4-2.6,2.5c-0.8,1.5-1.3,3.2-1.5,4.9
			c-0.2,1.4-0.2,2.9,0.1,4.4c0.3,1.1,1,2.1,2,2.7c1.4,0.9,2.9,1.7,4.4,2.2l13.4,5.4c3.1,1.1,6,2.8,8.5,4.9c1.9,1.8,3.2,4.1,3.6,6.6
			c0.5,3,0.6,6.1,0.2,9.2c-0.7,5.3-2.1,9.3-4.1,12c-2.2,2.9-5.3,4.9-8.8,5.7c-4.8,1.2-9.8,1.7-14.8,1.6c-2.4,0-5.7-0.2-9.9-0.5
			c-4.6-0.4-9.2-1-13.7-2l1.3-9.3l10.3,0.4c2.8,0.1,5.1,0.2,7,0.2h4.7c2.8,0.1,5.5-0.2,8.3-0.6c1.8-0.3,3.4-1.2,4.6-2.6
			c1.2-1.7,1.9-3.7,2.1-5.8c0.3-1.5,0.3-3,0-4.5c-0.3-1.1-0.9-2-1.9-2.6c-1.3-0.9-2.8-1.6-4.3-2.1l-13.9-5.6c-3-1.2-5.8-3-8.2-5.2
			c-1.8-1.8-3.1-4.2-3.6-6.7c-0.6-2.8-0.7-5.7-0.3-8.6c0.4-3.4,1.3-6.7,2.9-9.7c1.3-2.3,3.2-4.3,5.5-5.6c2.5-1.4,5.2-2.3,8-2.6
			C212.1,173.9,215.7,173.6,219.2,173.7z"/>
		<path fill="#0035AD" d="M309.7,173.7c3.6,0.1,7.3,0.3,11.2,0.6c3.8,0.3,7.5,1,11.2,2l-1.2,8.8l-7-0.2c-2.4-0.1-4.8-0.1-7.3-0.2
			c-2.5,0-5,0-7.5,0c-2,0-3.8,0-5.3,0.2c-1.4,0.1-2.7,0.4-3.9,0.9c-1.1,0.6-2,1.4-2.6,2.5c-0.8,1.5-1.3,3.2-1.5,4.9
			c-0.2,1.4-0.2,2.9,0.1,4.4c0.3,1.1,1,2.1,1.9,2.8c1.4,0.9,2.9,1.7,4.4,2.2l13.4,5.4c3.1,1.1,6,2.8,8.5,4.9
			c1.9,1.8,3.2,4.1,3.6,6.6c0.5,3,0.6,6.1,0.2,9.2c-0.7,5.3-2.1,9.3-4.1,12c-2.2,2.9-5.3,4.9-8.8,5.7c-4.8,1.1-9.8,1.7-14.8,1.6
			c-2.4,0-5.7-0.2-9.9-0.5c-4.6-0.4-9.2-1-13.7-2l1.3-9.3l10.3,0.4c2.8,0.1,5.1,0.2,7,0.2h4.7c2.8,0.1,5.5-0.2,8.3-0.6
			c1.8-0.3,3.4-1.2,4.6-2.6c1.2-1.7,1.9-3.7,2.1-5.8c0.3-1.5,0.3-3,0-4.5c-0.3-1.1-0.9-2-1.9-2.7c-1.3-0.9-2.7-1.6-4.1-2.1
			l-13.9-5.6c-3-1.2-5.8-3-8.2-5.2c-1.8-1.8-3.1-4.2-3.6-6.7c-0.6-2.8-0.7-5.7-0.3-8.6c0.4-3.4,1.4-6.7,2.9-9.7
			c1.3-2.3,3.1-4.3,5.4-5.6c2.5-1.4,5.2-2.3,8-2.6C302.7,173.9,306.2,173.6,309.7,173.7z"/>
		<path fill="#0035AD" d="M467.5,175l-22.6,68.2c-0.3,1-0.9,1.9-1.8,2.5c-0.9,0.6-2,0.9-3.1,0.9h-12.8c-1.1,0-2.2-0.4-3.1-1.1
			c-0.9-0.7-1.3-1.8-1.3-2.9l-2.5-49.3c0-1.6,0-3.1-0.1-4.5c-0.1-1.4-0.1-2.8-0.2-4.4H418c-0.4,1.4-0.8,3-1.2,4.5
			c-0.4,1.6-0.9,3.1-1.3,4.5l-16.2,49.7c-0.3,1-0.9,1.9-1.8,2.5c-0.9,0.6-2,0.9-3.1,0.9h-12.8c-1.2,0-2.3-0.4-3.2-1.1
			c-0.8-0.7-1.3-1.7-1.4-2.8l-3.6-67.7h13.1l1.6,52.6c0.1,1.4,0.1,3,0.1,4.6c0,1.6-0.1,3.3-0.1,5.1h2.3c0.5-1.8,1-3.6,1.5-5.3
			c0.5-1.7,1-3.4,1.5-5l16-48.3c0.4-2.4,2.6-4,5-3.9h11.5c1.1-0.1,2.2,0.4,3,1.2c0.8,0.9,1.2,2,1.2,3.1l3,48.4
			c0.1,1.5,0.1,3.1,0.2,4.8c0,1.7,0,3.3,0,4.9h2.4c0.3-1.6,0.8-3.3,1.2-5.1c0.4-1.8,0.9-3.5,1.4-5l16.2-52.3L467.5,175z"/>
		<path fill="#0035AD" d="M535.9,173.7c6.9,0,12.5,1.2,16.7,3.5s7,6.3,8.3,11.7c1.4,5.5,1.4,12.9,0.1,22.3c-0.7,6-2,12-3.9,17.7
			c-1.4,4.2-3.6,8-6.5,11.3c-2.7,2.8-6,4.9-9.7,6c-4.4,1.3-9,1.8-13.6,1.8c-7.1,0-12.7-1.2-16.8-3.5s-6.9-6.2-8.3-11.7
			c-1.4-5.5-1.5-12.9-0.2-22.4c0.7-5.9,2.1-11.8,3.9-17.4c1.4-4.2,3.6-8,6.5-11.3c2.7-2.8,6-4.9,9.7-6.1
			C526.5,174.3,531.2,173.6,535.9,173.7z M535.4,184.3c-3.5-0.1-7,0.7-10.1,2.4c-2.6,1.6-4.6,4.3-6.1,8.3
			c-1.8,5.3-3.1,10.7-3.8,16.3c-0.8,5.2-1.1,10.5-0.8,15.8c0.4,3.8,1.6,6.4,3.6,8c2.1,1.6,5.1,2.3,9.1,2.3c3.5,0.2,7-0.7,10-2.4
			c2.5-1.6,4.6-4.4,6.1-8.3c1.9-5.3,3.2-10.7,3.9-16.2c0.9-5.3,1.2-10.7,0.9-16c-0.4-3.8-1.6-6.4-3.7-7.9S539.5,184.3,535.4,184.3z"
			/>
		<path fill="#0035AD" d="M623.4,175l-10.1,71.6h-12.8l10.1-71.6H623.4z M636.3,174.1c4.6-0.1,9.2,0.5,13.7,1.9
			c3.4,1.1,6.2,3.4,7.9,6.6c1.6,3.1,2.1,7.4,1.3,13c-0.3,3-1.2,6-2.4,8.7c-1.1,2.4-2.9,4.5-5.1,6c-2.6,1.6-5.5,2.6-8.5,2.9l-0.1,0.5
			c1.3,0.4,2.5,1,3.5,1.8c1.2,0.9,2.2,2.1,2.9,3.5c0.9,1.7,1.4,3.6,1.7,5.6l4,22.2h-13.4l-3.6-22.3c-0.4-2.6-1.1-4.3-2.1-5.2
			c-1.4-1-3.1-1.5-4.9-1.3c-4.6-0.1-8.5-0.1-11.7-0.1c-3.2,0-5.8,0-7.8-0.1c-2.1-0.1-3.9-0.1-5.6-0.1l1.4-9.9h24.5
			c2.5,0,5.1-0.4,7.5-1.1c1.8-0.7,3.4-2,4.4-3.6c1.2-2.3,2-4.9,2.2-7.5c0.5-2.2,0.5-4.5,0-6.6c-0.4-1.6-1.6-2.8-3.1-3.4
			c-2.2-0.8-4.5-1.1-6.9-1c-6.3,0-11.6,0-16,0.1s-7.3,0.1-8.8,0.2l-0.6-9.6c2.8-0.3,5.4-0.5,7.9-0.6c2.5-0.1,5.1-0.2,7.9-0.3
			C629.3,174.1,632.5,174.1,636.3,174.1L636.3,174.1z"/>
		<path fill="#0035AD" d="M732.6,174.1c7.5,0,13.4,1.1,17.6,3.4c4.3,2.3,7.1,6.1,8.5,11.5s1.4,12.8,0.1,22.2
			c-0.8,6.3-2.2,12.5-4.3,18.6c-1.3,4.1-3.6,7.9-6.6,10.9c-2.8,2.6-6.3,4.4-10,5.3c-4.7,1-9.5,1.5-14.3,1.5c-4.4,0-8.9-0.1-13.4-0.3
			s-8.8-0.4-12.9-0.7l6.5-10c2.7,0.1,5.9,0.3,9.6,0.4c3.7,0.1,7,0.2,10,0.1c2.9,0.1,5.9-0.3,8.7-1c2.4-0.7,4.5-2,6.1-3.9
			c1.9-2.4,3.3-5.2,4.1-8.2c1.3-4.5,2.2-9.1,2.8-13.7c0.7-4.4,1-8.8,1.1-13.2c0.1-2.7-0.4-5.4-1.5-7.9c-0.9-1.8-2.6-3.2-4.5-3.9
			c-2.6-0.8-5.3-1.2-8-1.1c-1.9,0-4.1,0-6.5,0.1s-4.8,0-7.2,0s-4.5,0-6.3,0.1l-4.9-9.6c2.5-0.2,5.2-0.4,8.1-0.5
			c2.9-0.1,5.8-0.2,8.8-0.3C727.3,174,730,174.1,732.6,174.1z M720.5,175l-10.1,71.6h-13l10.1-71.6H720.5z"/>
		<path fill="#0035AD" d="M830,173.7c3.6,0.1,7.3,0.3,11.2,0.6c3.8,0.3,7.5,1,11.2,2l-1.2,8.8l-7-0.2c-2.4-0.1-4.9-0.1-7.3-0.2
			c-2.4,0-5,0-7.5,0c-2,0-3.8,0-5.3,0.2c-1.4,0.1-2.7,0.4-3.9,0.9c-1.1,0.6-2,1.4-2.6,2.5c-0.8,1.5-1.3,3.2-1.5,4.9
			c-0.2,1.4-0.2,2.9,0.1,4.4c0.3,1.1,1,2.1,1.9,2.8c1.4,0.9,2.9,1.7,4.4,2.2l13.4,5.4c3.1,1.1,6,2.8,8.5,4.9
			c1.9,1.8,3.2,4.1,3.6,6.6c0.5,3,0.6,6.1,0.2,9.2c-0.7,5.3-2.1,9.3-4.1,12c-2.2,2.9-5.3,4.9-8.8,5.7c-4.8,1.1-9.8,1.7-14.7,1.6
			c-2.4,0-5.7-0.2-9.9-0.5c-4.6-0.4-9.2-1-13.7-2l1.3-9.3l10.3,0.4c2.8,0.1,5.1,0.2,7,0.2h4.7c2.8,0.1,5.5-0.2,8.3-0.6
			c1.8-0.3,3.4-1.2,4.6-2.6c1.2-1.7,1.9-3.7,2.1-5.8c0.3-1.5,0.3-3,0-4.5c-0.3-1.1-0.9-2-1.9-2.6c-1.3-0.9-2.7-1.6-4.1-2.1
			l-13.9-5.6c-3-1.2-5.8-3-8.2-5.2c-1.8-1.9-3.1-4.2-3.6-6.7c-0.6-2.8-0.7-5.7-0.3-8.6c0.4-3.4,1.3-6.7,2.9-9.7
			c1.3-2.3,3.1-4.3,5.4-5.6c2.5-1.4,5.2-2.3,8-2.6C822.9,173.9,826.4,173.6,830,173.7z"/>
	</g>
</g>
</svg>
