<svg id="Capa_1" data-name="Capa 1" xmlns="http://www.w3.org/2000/svg" viewBox="0 0 850.39 248.25"><defs><style>.cls-1{fill:#0035ad;}</style></defs><path class="cls-1" d="M821.23,19.76h5.86c2.09,0,3.72.77,3.72,3.35s-1.63,3.35-3.72,3.35h-5.86Zm5.44,10.51,4.81,9.48h5.94L832.32,30c1.19-.37,4.45-1.46,4.45-7,0-5.18-2.8-7.31-7-7.31h-13.5v24.1h5V30.27Zm-24.59-2.64c0,14,5.11,25.26,24.19,25.26s24.12-11.24,24.12-25.26S845.28,2.39,826.27,2.39s-24.19,11.17-24.19,25.24M826.27,9.46c15,0,17,8.48,17,18.17s-2,18.2-17,18.2-17.09-8.49-17.09-18.2,2-18.17,17.09-18.17"/><path class="cls-1" d="M537.85,165.07V2.31H498.18v98.74h-.83L457.41,27.2C449.26,12,439.34,2.31,416.05,2.31h-20.8V165.07h39.69v-99h.82s39.61,74,39.72,74c8.21,15.39,18.26,24.94,41.38,24.94ZM242.52,67H169.91C174,43.31,188.3,37,201.73,37H245V2.31H191.82c-43.2,0-66.55,29.08-66.55,81.37s23.35,81.39,66.55,81.39H245V130.33H201.73c-23.35,0-29.55-17.15-31.82-29.91h72.61Zm137.59,63.38H332.72c-22.94,0-33.27-17.15-33.27-46.65S309.78,37,332.72,37h47.39V2.31H322.8c-43.2,0-66.54,29.08-66.54,81.37s23.34,81.39,66.54,81.39h57.31ZM551,83.68c0,46.44,16.94,83.68,80.18,83.68,63,0,80-37.24,80-83.68C711.18,37,694.23,0,631.2,0,568,0,551,37,551,83.68M631.2,33.47c34.31,0,38.85,23.44,38.85,50.21s-4.54,50.2-38.85,50.2c-34.52,0-39.05-23.41-39.05-50.2s4.53-50.21,39.05-50.21m148.54,131.6h45.11V130.33H791.3c-20.87,0-27.29-13.6-27.29-27.81V2.31H724.34V106.06c0,40.38,22.93,59,55.4,59M64.49,37l57.62.12V2.45H0v34.7L24.81,37l0,69c0,40.38,22.95,59,55.39,59h41.87V130.33H91.82c-20.89,0-27.29-13.6-27.29-27.81Z"/><path class="cls-1" d="M81.36,188.19l-8.29,58.95H62.4l8.28-58.95Zm10.42-.76q7.44,0,11.79,1.79a10.17,10.17,0,0,1,5.94,6q1.58,4.23.47,11.49-1,7.52-3.42,11.53a12.06,12.06,0,0,1-6.75,5.47,36.66,36.66,0,0,1-11.36,1.45c-2.39,0-4.74-.09-7-.29s-4.44-.45-6.4-.73-3.66-.58-5.09-.9a12.31,12.31,0,0,1-2.9-.89l.51-5.56H87.77a17.81,17.81,0,0,0,6.28-.89,6.88,6.88,0,0,0,3.54-3.25,20.14,20.14,0,0,0,1.88-6.79,15.82,15.82,0,0,0,0-6.2,4.41,4.41,0,0,0-2.52-3,14,14,0,0,0-5.51-.85q-7.51,0-12.94.08c-3.62.06-6,.17-7.31.34l-.51-8c2.28-.22,4.41-.39,6.41-.51s4.13-.18,6.41-.21S88.54,187.43,91.78,187.43Z"/><path class="cls-1" d="M171,188.19a3.62,3.62,0,0,1,2.39.86,3.33,3.33,0,0,1,1.2,2.22l10,55.87H173.88L167,201.69c-.12-.91-.22-1.83-.3-2.77s-.16-1.84-.22-2.7h-2.56c-.28.8-.6,1.69-.94,2.65s-.71,1.91-1.11,2.82L142.1,247.14H130.91l25.71-56.3a3.78,3.78,0,0,1,1.54-2,4.39,4.39,0,0,1,2.39-.65Zm5.3,33.75-1,8.54H145l1.11-8.54Z"/><path class="cls-1" d="M242.81,187.08q4.44.09,9.23.52a53.3,53.3,0,0,1,9.23,1.62l-1,7.26-5.77-.17q-2.94-.09-6-.13t-6.19,0c-1.65,0-3.12,0-4.4.13a8.58,8.58,0,0,0-3.24.77,5,5,0,0,0-2.18,2.09,10.89,10.89,0,0,0-1.2,4,10.31,10.31,0,0,0,.09,3.59A3.89,3.89,0,0,0,233,209a16.76,16.76,0,0,0,3.63,1.83l11,4.44a21.1,21.1,0,0,1,7,4.06,10.19,10.19,0,0,1,3,5.47,24.35,24.35,0,0,1,.13,7.56q-.85,6.49-3.38,9.91a12.82,12.82,0,0,1-7.21,4.7A47.6,47.6,0,0,1,235,248.25q-3,0-8.11-.39a87.48,87.48,0,0,1-11.28-1.66l1.11-7.69,8.46.3c2.28.08,4.19.13,5.72.13h3.85a35.8,35.8,0,0,0,6.79-.51,6.31,6.31,0,0,0,3.8-2.1,9.49,9.49,0,0,0,1.71-4.74,9.92,9.92,0,0,0,0-3.72,3.78,3.78,0,0,0-1.54-2.17A15.86,15.86,0,0,0,242,224l-11.44-4.62a20.81,20.81,0,0,1-6.71-4.27,11,11,0,0,1-3-5.55,22.22,22.22,0,0,1-.26-7.09,22.83,22.83,0,0,1,2.39-8,11.86,11.86,0,0,1,4.49-4.61,19.32,19.32,0,0,1,6.58-2.18A56.62,56.62,0,0,1,242.81,187.08Z"/><path class="cls-1" d="M317.3,187.08q4.44.09,9.23.52a53.3,53.3,0,0,1,9.23,1.62l-1,7.26-5.77-.17q-2.94-.09-6-.13t-6.19,0c-1.65,0-3.12,0-4.4.13a8.58,8.58,0,0,0-3.24.77,5,5,0,0,0-2.18,2.09,10.89,10.89,0,0,0-1.2,4,10.31,10.31,0,0,0,.09,3.59,3.89,3.89,0,0,0,1.58,2.27,16.76,16.76,0,0,0,3.63,1.83l11,4.44a21.1,21.1,0,0,1,7,4.06,10.19,10.19,0,0,1,3,5.47,24.35,24.35,0,0,1,.13,7.56q-.85,6.49-3.38,9.91a12.82,12.82,0,0,1-7.21,4.7,47.6,47.6,0,0,1-12.14,1.28q-3,0-8.11-.39a87.48,87.48,0,0,1-11.28-1.66l1.11-7.69,8.46.3c2.28.08,4.19.13,5.72.13h3.85a35.73,35.73,0,0,0,6.79-.51,6.31,6.31,0,0,0,3.8-2.1,9.49,9.49,0,0,0,1.71-4.74,9.92,9.92,0,0,0,0-3.72A3.78,3.78,0,0,0,320,225.7a15.75,15.75,0,0,0-3.41-1.71l-11.45-4.62a20.81,20.81,0,0,1-6.71-4.27,11.12,11.12,0,0,1-3-5.55,22.22,22.22,0,0,1-.26-7.09,22.82,22.82,0,0,1,2.4-8,11.77,11.77,0,0,1,4.48-4.61,19.32,19.32,0,0,1,6.58-2.18A56.62,56.62,0,0,1,317.3,187.08Z"/><path class="cls-1" d="M447.15,188.19l-18.62,56.13a3.91,3.91,0,0,1-1.45,2.09,4.31,4.31,0,0,1-2.57.73H414a3.67,3.67,0,0,1-2.52-.94,3,3,0,0,1-1.07-2.39l-2.05-40.58c0-1.31,0-2.53-.09-3.67s-.11-2.34-.17-3.59H406.4c-.34,1.19-.68,2.43-1,3.71s-.71,2.52-1.11,3.72l-13.33,40.92a3.82,3.82,0,0,1-1.49,2.09,4.37,4.37,0,0,1-2.52.73H376.42a3.79,3.79,0,0,1-2.61-.94,3.27,3.27,0,0,1-1.15-2.31l-3-55.7h10.76l1.28,43.32c.06,1.19.08,2.46.05,3.8s-.05,2.75-.05,4.23h1.88c.4-1.48.8-2.94,1.2-4.36s.8-2.79,1.2-4.1l13.15-39.72a3.88,3.88,0,0,1,4.1-3.17h9.48a3.22,3.22,0,0,1,2.48,1,4,4,0,0,1,1,2.56l2.47,39.81c.06,1.25.1,2.56.13,3.93s0,2.71,0,4h2c.28-1.31.63-2.71,1-4.19s.77-2.85,1.12-4.1l13.32-43.06Z"/><path class="cls-1" d="M503.45,187.08q8.54,0,13.71,2.91t6.87,9.65q1.71,6.75.09,18.37a67.79,67.79,0,0,1-3.25,14.56,26.88,26.88,0,0,1-5.38,9.31,17.93,17.93,0,0,1-8,4.92,38.81,38.81,0,0,1-11.23,1.45q-8.72,0-13.84-2.86t-6.83-9.61q-1.71-6.75-.17-18.45A75.16,75.16,0,0,1,478.67,203a26.25,26.25,0,0,1,5.34-9.31,18.83,18.83,0,0,1,8-5A37.36,37.36,0,0,1,503.45,187.08ZM503,195.8a15.53,15.53,0,0,0-8.29,2c-2.11,1.31-3.77,3.58-5,6.79A67.43,67.43,0,0,0,486.62,218a59.42,59.42,0,0,0-.64,13q.47,4.65,3,6.57c1.71,1.28,4.21,1.93,7.52,1.93a15,15,0,0,0,8.24-2q3.12-2,5-6.84a62.36,62.36,0,0,0,3.2-13.36,59.2,59.2,0,0,0,.73-13.2c-.31-3.11-1.34-5.27-3.08-6.5S506.38,195.8,503,195.8Z"/><path class="cls-1" d="M575.46,188.19l-8.29,58.95h-10.5L565,188.19Zm10.59-.76A34.06,34.06,0,0,1,597.29,189a11.16,11.16,0,0,1,6.49,5.42q2,3.84,1.07,10.68a23.21,23.21,0,0,1-2,7.17,12.42,12.42,0,0,1-4.19,4.92,15.6,15.6,0,0,1-7,2.35l-.08.42a8.71,8.71,0,0,1,2.9,1.46,8.5,8.5,0,0,1,2.35,2.86,14.66,14.66,0,0,1,1.41,4.57l3.33,18.28h-11l-3-18.37c-.29-2.1-.87-3.53-1.75-4.27a6.06,6.06,0,0,0-4-1.11q-5.73-.09-9.61-.09c-2.6,0-4.74,0-6.45-.08s-3.25-.09-4.62-.09L562.3,215h20.16a19.5,19.5,0,0,0,6.16-.94,7.07,7.07,0,0,0,3.63-3,16.08,16.08,0,0,0,1.83-6.2,12.33,12.33,0,0,0,0-5.46,4.22,4.22,0,0,0-2.56-2.78,15.37,15.37,0,0,0-5.64-.81q-7.77,0-13.15.08t-7.27.17l-.51-7.86q3.42-.33,6.49-.51t6.54-.21Q581.44,187.43,586.05,187.43Z"/><path class="cls-1" d="M665.33,187.43q9.23,0,14.52,2.82c3.53,1.87,5.87,5,7,9.48s1.16,10.53.08,18.28a80,80,0,0,1-3.5,15.29,23.12,23.12,0,0,1-5.47,9,17.87,17.87,0,0,1-8.24,4.36,50.11,50.11,0,0,1-11.75,1.2c-3.64,0-7.32-.07-11-.22s-7.23-.32-10.59-.55l5.38-8.2q3.33.17,7.86.3t8.2.12a26.42,26.42,0,0,0,7.18-.85,10.39,10.39,0,0,0,5-3.2,18.74,18.74,0,0,0,3.41-6.71,70.75,70.75,0,0,0,2.31-11.27,76.42,76.42,0,0,0,.9-10.85,14.85,14.85,0,0,0-1.24-6.5,6.52,6.52,0,0,0-3.72-3.2,20.08,20.08,0,0,0-6.62-.9c-1.59,0-3.37,0-5.34.05s-3.93,0-5.89,0-3.69,0-5.17.08l-4-7.86c2.05-.17,4.28-.31,6.67-.42s4.79-.2,7.22-.26S663.22,187.43,665.33,187.43Zm-10,.76-8.28,58.95H636.37l8.28-58.95Z"/><path class="cls-1" d="M745.46,187.08q4.44.09,9.22.52a53.13,53.13,0,0,1,9.23,1.62l-1,7.26-5.76-.17q-3-.09-6-.13c-2,0-4.09,0-6.2,0-1.65,0-3.11,0-4.4.13a8.58,8.58,0,0,0-3.24.77,5,5,0,0,0-2.18,2.09,10.89,10.89,0,0,0-1.2,4,10.31,10.31,0,0,0,.09,3.59,3.93,3.93,0,0,0,1.58,2.27,17,17,0,0,0,3.63,1.83l11,4.44a20.89,20.89,0,0,1,7,4.06,10.12,10.12,0,0,1,3,5.47,24.35,24.35,0,0,1,.13,7.56q-.86,6.49-3.37,9.91a12.84,12.84,0,0,1-7.22,4.7,47.52,47.52,0,0,1-12.13,1.28c-2,0-4.7-.13-8.12-.39a87.6,87.6,0,0,1-11.27-1.66l1.11-7.69,8.45.3c2.28.08,4.19.13,5.73.13h3.84a35.73,35.73,0,0,0,6.79-.51,6.31,6.31,0,0,0,3.8-2.1,9.39,9.39,0,0,0,1.71-4.74,9.92,9.92,0,0,0,0-3.72,3.78,3.78,0,0,0-1.54-2.17,15.51,15.51,0,0,0-3.41-1.71l-11.45-4.62a20.92,20.92,0,0,1-6.71-4.27,11.2,11.2,0,0,1-3-5.55,22.23,22.23,0,0,1-.25-7.09,22.62,22.62,0,0,1,2.39-8,11.84,11.84,0,0,1,4.48-4.61,19.39,19.39,0,0,1,6.58-2.18A56.66,56.66,0,0,1,745.46,187.08Z"/></svg>