<?xml version="1.0" encoding="utf-8"?>
<!-- Generator: Adobe Illustrator 24.3.0, SVG Export Plug-In . SVG Version: 6.00 Build 0)  -->
<svg version="1.1" id="Capa_1" xmlns="http://www.w3.org/2000/svg" xmlns:xlink="http://www.w3.org/1999/xlink" x="0px" y="0px"
	 viewBox="0 0 850.4 248.3" enable-background="new 0 0 850.4 248.3" xml:space="preserve">
<path fill="#FFFFFF" d="M821.2,19.8h5.9c2.1,0,3.7,0.8,3.7,3.4s-1.6,3.4-3.7,3.4h-5.9V19.8z M826.7,30.3l4.8,9.5h5.9l-5.1-9.8
	c1.2-0.4,4.5-1.5,4.5-7c0-5.2-2.8-7.3-7-7.3h-13.5v24.1h5v-9.5H826.7z M802.1,27.6c0,14,5.1,25.3,24.2,25.3s24.1-11.2,24.1-25.3
	s-5.1-25.2-24.1-25.2S802.1,13.6,802.1,27.6 M826.3,9.5c15,0,17,8.5,17,18.2s-2,18.2-17,18.2s-17.1-8.5-17.1-18.2
	S811.2,9.5,826.3,9.5"/>
<path fill="#FFFFFF" d="M537.8,165.1V2.3h-39.7V101h-0.8l-39.9-73.8C449.3,12,439.3,2.3,416,2.3h-20.8v162.8h39.7v-99h0.8
	c0,0,39.6,74,39.7,74c8.2,15.4,18.3,24.9,41.4,24.9L537.8,165.1z M242.5,67h-72.6c4.1-23.7,18.4-30,31.8-30H245V2.3h-53.2
	c-43.2,0-66.6,29.1-66.6,81.4s23.4,81.4,66.6,81.4H245v-34.7h-43.3c-23.4,0-29.6-17.2-31.8-29.9h72.6V67z M380.1,130.4h-47.4
	c-22.9,0-33.3-17.2-33.3-46.7S309.8,37,332.7,37h47.4V2.3h-57.3c-43.2,0-66.5,29.1-66.5,81.4s23.3,81.4,66.5,81.4h57.3V130.4z
	 M551,83.7c0,46.4,16.9,83.7,80.2,83.7c63,0,80-37.2,80-83.7c0-46.7-17-83.7-80-83.7C568,0,551,37,551,83.7 M631.2,33.5
	c34.3,0,38.8,23.4,38.8,50.2s-4.5,50.2-38.8,50.2c-34.5,0-39-23.4-39-50.2S596.7,33.5,631.2,33.5 M779.7,165.1h45.1v-34.7h-33.5
	c-20.9,0-27.3-13.6-27.3-27.8V2.3h-39.7v103.8C724.3,146.4,747.3,165.1,779.7,165.1 M64.5,37l57.6,0.1V2.5H0v34.7L24.8,37v69
	c0,40.4,23,59,55.4,59h41.9v-34.7H91.8c-20.9,0-27.3-13.6-27.3-27.8L64.5,37z"/>
<path fill="#FFFFFF" d="M23,175.4l-10,71.5H0l10-71.5H23z M35.6,174.5c6,0,10.8,0.7,14.3,2.2c3.3,1.3,6,3.9,7.2,7.3
	c1.3,3.4,1.5,8.1,0.6,13.9c-0.8,6.1-2.2,10.7-4.1,14c-1.8,3.2-4.7,5.5-8.2,6.6c-4.5,1.3-9.1,1.9-13.8,1.8c-2.9,0-5.7-0.1-8.5-0.4
	c-2.7-0.2-5.4-0.5-7.8-0.9c-2.4-0.3-4.4-0.7-6.2-1.1c-1.2-0.2-2.4-0.6-3.5-1.1l0.6-6.7h24.5c2.6,0.1,5.2-0.3,7.6-1.1
	c1.9-0.8,3.4-2.2,4.3-3.9c1.2-2.6,2-5.4,2.3-8.2c0.5-2.5,0.5-5,0-7.5c-0.4-1.6-1.5-3-3.1-3.6c-2.1-0.8-4.4-1.1-6.7-1
	c-6.1,0-11.3,0-15.7,0.1c-4.4,0.1-7.3,0.2-8.9,0.4l-0.6-9.7c2.8-0.3,5.3-0.5,7.8-0.6s5-0.2,7.8-0.3
	C28.3,174.6,31.7,174.5,35.6,174.5L35.6,174.5z"/>
<path fill="#FFFFFF" d="M131.6,175.4c1.1,0,2.1,0.4,2.9,1c0.8,0.7,1.3,1.6,1.5,2.7l12.1,67.7h-13l-8.3-55.1
	c-0.1-1.1-0.3-2.2-0.4-3.4s-0.2-2.2-0.3-3.3h-3.1c-0.3,1-0.7,2-1.1,3.2s-0.9,2.3-1.3,3.4l-24,55.1H83l31.2-68.2c0.3-1,1-1.9,1.9-2.4
	c0.9-0.5,1.9-0.8,2.9-0.8H131.6z M138.1,216.3l-1.2,10.4h-36.7l1.3-10.4H138.1z"/>
<path fill="#FFFFFF" d="M218.7,174.1c3.6,0.1,7.3,0.3,11.2,0.6c3.8,0.3,7.5,1,11.2,2l-1.2,8.8l-7-0.2c-2.4-0.1-4.8-0.1-7.3-0.2
	c-2.5,0-5,0-7.5,0c-2,0-3.8,0-5.3,0.2c-1.4,0.1-2.7,0.4-3.9,0.9c-1.1,0.6-2,1.4-2.6,2.5c-0.8,1.5-1.3,3.2-1.5,4.8
	c-0.2,1.4-0.2,2.9,0.1,4.4c0.3,1.1,1,2.1,2,2.7c1.4,0.9,2.8,1.7,4.4,2.2l13.3,5.4c3.1,1.1,6,2.7,8.5,4.9c1.9,1.8,3.1,4.1,3.6,6.6
	c0.5,3,0.6,6.1,0.2,9.2c-0.7,5.2-2.1,9.2-4.1,12c-2.2,2.8-5.3,4.9-8.7,5.7c-4.8,1.1-9.8,1.7-14.8,1.6c-2.4,0-5.7-0.2-9.8-0.5
	c-4.6-0.4-9.2-1-13.7-2l1.3-9.3l10.3,0.4c2.8,0.1,5.1,0.2,6.9,0.2h4.7c2.8,0.1,5.5-0.2,8.2-0.6c1.8-0.3,3.4-1.2,4.6-2.5
	c1.2-1.7,1.9-3.7,2.1-5.7c0.3-1.5,0.3-3,0-4.5c-0.3-1.1-0.9-2-1.9-2.6c-1.3-0.9-2.8-1.6-4.3-2.1l-13.9-5.6c-3-1.2-5.8-2.9-8.1-5.2
	c-1.8-1.8-3.1-4.2-3.6-6.7c-0.6-2.8-0.7-5.7-0.3-8.6c0.4-3.4,1.3-6.7,2.9-9.7c1.3-2.3,3.1-4.3,5.4-5.6c2.5-1.4,5.2-2.2,8-2.6
	C211.6,174.3,215.1,174,218.7,174.1z"/>
<path fill="#FFFFFF" d="M309,174.1c3.6,0.1,7.3,0.3,11.2,0.6c3.8,0.3,7.5,1,11.2,2l-1.2,8.8l-7-0.2c-2.4-0.1-4.8-0.1-7.3-0.2
	s-5,0-7.5,0c-2,0-3.8,0-5.3,0.2c-1.4,0.1-2.7,0.4-3.9,0.9c-1.1,0.6-2,1.4-2.6,2.5c-0.8,1.5-1.3,3.2-1.5,4.8
	c-0.2,1.4-0.2,2.9,0.1,4.4c0.3,1.1,1,2.1,1.9,2.8c1.4,0.9,2.8,1.7,4.4,2.2l13.3,5.4c3.1,1.1,6,2.7,8.5,4.9c1.9,1.8,3.1,4.1,3.6,6.6
	c0.5,3,0.6,6.1,0.2,9.2c-0.7,5.2-2.1,9.2-4.1,12c-2.2,2.8-5.3,4.9-8.7,5.7c-4.8,1.1-9.8,1.7-14.7,1.6c-2.4,0-5.7-0.2-9.8-0.5
	c-4.6-0.4-9.2-1-13.7-2l1.3-9.3l10.3,0.4c2.8,0.1,5.1,0.2,6.9,0.2h4.7c2.8,0.1,5.5-0.2,8.2-0.6c1.8-0.3,3.4-1.2,4.6-2.5
	c1.2-1.7,1.9-3.7,2.1-5.7c0.3-1.5,0.3-3,0-4.5c-0.3-1.1-0.9-2-1.9-2.7c-1.3-0.9-2.7-1.6-4.1-2.1l-13.9-5.6c-3-1.2-5.8-2.9-8.1-5.2
	c-1.8-1.8-3.1-4.2-3.6-6.7c-0.6-2.8-0.7-5.7-0.3-8.6c0.4-3.4,1.4-6.7,2.9-9.7c1.3-2.3,3.1-4.3,5.4-5.6c2.5-1.4,5.2-2.2,8-2.6
	C302,174.3,305.5,174.1,309,174.1z"/>
<path fill="#FFFFFF" d="M466.4,175.4l-22.6,68c-0.3,1-0.9,1.9-1.8,2.5c-0.9,0.6-2,0.9-3.1,0.9h-12.7c-1.1,0-2.2-0.4-3.1-1.1
	c-0.9-0.7-1.3-1.8-1.3-2.9l-2.5-49.2c0-1.6,0-3.1-0.1-4.4c-0.1-1.4-0.1-2.8-0.2-4.4H417c-0.4,1.4-0.8,2.9-1.2,4.5s-0.9,3.1-1.3,4.5
	l-16.2,49.6c-0.3,1-0.9,1.9-1.8,2.5c-0.9,0.6-2,0.9-3.1,0.9h-12.8c-1.2,0-2.3-0.4-3.2-1.1c-0.8-0.7-1.3-1.7-1.4-2.8l-3.6-67.5h13
	l1.6,52.5c0.1,1.4,0.1,3,0.1,4.6c0,1.6-0.1,3.3-0.1,5.1h2.3c0.5-1.8,1-3.6,1.5-5.3s1-3.4,1.5-5l15.9-48.1c0.4-2.4,2.6-4,5-3.8h11.5
	c1.1-0.1,2.2,0.4,3,1.2c0.8,0.9,1.2,2,1.2,3.1l3,48.3c0.1,1.5,0.1,3.1,0.2,4.8c0,1.7,0,3.3,0,4.8h2.4c0.3-1.6,0.8-3.3,1.2-5.1
	c0.4-1.8,0.9-3.5,1.4-5l16.1-52.2L466.4,175.4z"/>
<path fill="#FFFFFF" d="M534.7,174.1c6.9,0,12.4,1.2,16.6,3.5c4.2,2.4,7,6.3,8.3,11.7c1.4,5.5,1.4,12.9,0.1,22.3
	c-0.7,6-2,11.9-3.9,17.7c-1.4,4.2-3.6,8-6.5,11.3c-2.6,2.8-6,4.9-9.7,6c-4.4,1.2-9,1.8-13.6,1.8c-7,0-12.6-1.2-16.8-3.5
	s-6.9-6.2-8.3-11.6c-1.4-5.5-1.5-12.9-0.2-22.4c0.7-5.9,2.1-11.7,3.9-17.4c1.4-4.2,3.6-8,6.5-11.3c2.7-2.8,6-4.9,9.7-6.1
	C525.3,174.7,530,174,534.7,174.1z M534.1,184.7c-3.5-0.1-7,0.7-10,2.4c-2.6,1.6-4.6,4.3-6.1,8.2c-1.8,5.3-3.1,10.7-3.7,16.3
	c-0.8,5.2-1.1,10.5-0.8,15.8c0.4,3.8,1.6,6.4,3.6,8c2.1,1.6,5.1,2.3,9.1,2.3c3.5,0.2,7-0.7,10-2.4c2.5-1.6,4.5-4.4,6.1-8.3
	c1.9-5.2,3.2-10.7,3.9-16.2c0.9-5.3,1.2-10.7,0.9-16c-0.4-3.8-1.6-6.4-3.7-7.9C541.2,185.3,538.2,184.7,534.1,184.7z"/>
<path fill="#FFFFFF" d="M621.9,175.4l-10,71.5h-12.7l10.1-71.5H621.9z M634.8,174.5c4.6-0.1,9.2,0.5,13.6,1.9
	c3.4,1.1,6.2,3.4,7.9,6.6c1.6,3.1,2,7.4,1.3,12.9c-0.3,3-1.2,5.9-2.4,8.7c-1.1,2.4-2.9,4.5-5.1,6c-2.6,1.6-5.5,2.6-8.5,2.8l-0.1,0.5
	c1.3,0.4,2.5,1,3.5,1.8c1.2,0.9,2.2,2.1,2.8,3.5c0.9,1.7,1.4,3.6,1.7,5.5l4,22.2h-13.3l-3.6-22.3c-0.4-2.5-1.1-4.3-2.1-5.2
	c-1.4-1-3.1-1.5-4.8-1.3c-4.6-0.1-8.5-0.1-11.6-0.1c-3.2,0-5.7,0-7.8-0.1c-2.1-0.1-3.9-0.1-5.6-0.1l1.4-9.8h24.4
	c2.5,0,5.1-0.4,7.5-1.1c1.8-0.7,3.4-2,4.4-3.6c1.2-2.3,2-4.9,2.2-7.5c0.5-2.2,0.5-4.4,0-6.6c-0.4-1.5-1.6-2.8-3.1-3.4
	c-2.2-0.8-4.5-1.1-6.8-1c-6.3,0-11.6,0-15.9,0.1c-4.3,0.1-7.3,0.1-8.8,0.2l-0.6-9.5c2.8-0.3,5.4-0.5,7.9-0.6
	c2.5-0.1,5.1-0.2,7.9-0.3C627.8,174.5,631.1,174.5,634.8,174.5L634.8,174.5z"/>
<path fill="#FFFFFF" d="M730.9,174.5c7.5,0,13.3,1.1,17.6,3.4c4.3,2.3,7.1,6.1,8.5,11.5c1.4,5.4,1.4,12.8,0.1,22.2
	c-0.8,6.3-2.2,12.5-4.2,18.5c-1.3,4.1-3.6,7.8-6.6,10.9c-2.8,2.6-6.3,4.4-10,5.3c-4.7,1-9.5,1.5-14.2,1.5c-4.4,0-8.9-0.1-13.3-0.3
	c-4.5-0.2-8.8-0.4-12.8-0.7l6.5-9.9c2.7,0.1,5.9,0.3,9.5,0.4c3.7,0.1,7,0.2,9.9,0.1c2.9,0.1,5.9-0.3,8.7-1c2.4-0.7,4.5-2,6.1-3.9
	c1.9-2.4,3.3-5.2,4.1-8.1c1.3-4.5,2.2-9,2.8-13.7c0.7-4.4,1-8.7,1.1-13.2c0.1-2.7-0.4-5.4-1.5-7.9c-0.9-1.8-2.6-3.2-4.5-3.9
	c-2.6-0.8-5.3-1.2-8-1.1c-1.9,0-4.1,0-6.5,0.1c-2.4,0.1-4.8,0-7.1,0s-4.5,0-6.3,0.1l-4.8-9.5c2.5-0.2,5.2-0.4,8.1-0.5
	s5.8-0.2,8.8-0.3C725.6,174.4,728.3,174.5,730.9,174.5z M718.8,175.4l-10,71.5h-12.9l10-71.5H718.8z"/>
<path fill="#FFFFFF" d="M828,174.1c3.6,0.1,7.3,0.3,11.2,0.6c3.8,0.3,7.5,1,11.2,2l-1.2,8.8l-7-0.2c-2.4-0.1-4.8-0.1-7.3-0.2
	c-2.4,0-5,0-7.5,0c-2,0-3.8,0-5.3,0.2c-1.4,0.1-2.7,0.4-3.9,0.9c-1.1,0.6-2,1.4-2.6,2.5c-0.8,1.5-1.3,3.2-1.5,4.8
	c-0.2,1.4-0.2,2.9,0.1,4.4c0.3,1.1,1,2.1,1.9,2.8c1.4,0.9,2.9,1.7,4.4,2.2l13.3,5.4c3.1,1.1,6,2.7,8.5,4.9c1.9,1.8,3.2,4.1,3.6,6.6
	c0.5,3,0.6,6.1,0.2,9.2c-0.7,5.2-2.1,9.2-4.1,12c-2.2,2.9-5.3,4.9-8.8,5.7c-4.8,1.1-9.8,1.7-14.7,1.6c-2.4,0-5.7-0.2-9.8-0.5
	c-4.6-0.4-9.2-1-13.7-2l1.3-9.3l10.2,0.4c2.8,0.1,5.1,0.2,6.9,0.2h4.7c2.8,0.1,5.5-0.2,8.2-0.6c1.8-0.3,3.4-1.2,4.6-2.5
	c1.2-1.7,1.9-3.7,2.1-5.7c0.3-1.5,0.3-3,0-4.5c-0.3-1.1-0.9-2-1.9-2.6c-1.3-0.9-2.7-1.6-4.1-2.1l-13.9-5.6c-3-1.2-5.8-2.9-8.1-5.2
	c-1.8-1.8-3.1-4.2-3.6-6.7c-0.6-2.8-0.7-5.7-0.3-8.6c0.4-3.4,1.3-6.7,2.9-9.7c1.3-2.3,3.1-4.3,5.4-5.6c2.5-1.4,5.2-2.2,8-2.6
	C821,174.3,824.5,174.1,828,174.1z"/>
</svg>
