<?xml version="1.0" encoding="utf-8"?>
<!-- Generator: Adobe Illustrator 24.3.0, SVG Export Plug-In . SVG Version: 6.00 Build 0)  -->
<svg version="1.1" id="Capa_1" xmlns="http://www.w3.org/2000/svg" xmlns:xlink="http://www.w3.org/1999/xlink" x="0px" y="0px"
	 viewBox="0 0 585.186 479.489" enable-background="new 0 0 585.186 479.489" xml:space="preserve">
<rect x="-31.928" y="424.161" fill="#FFFDFD" width="5.177" height="10.257"/>
<path d="M418.932,231.594"/>
<path d="M418.932,231.594"/>
<g display="none">
	<path display="inline" d="M256.981,389.458c-35.491-4.447-70.239-15.032-102.24-31.661c-2.045-0.959-3.958-2.151-5.944-3.22
		l-5.923-3.282l-1.482-0.822l-1.442-0.886l-2.88-1.784l-5.771-3.569l-1.447-0.89l-1.402-0.954l-2.806-1.911l-5.621-3.83
		c-0.951-0.623-1.854-1.306-2.756-1.993l-2.717-2.049l-5.441-4.107c-14.29-11.239-27.587-23.892-39.518-37.829
		c-23.817-27.888-41.989-61.053-52.245-96.702c-5.157-17.806-8.365-36.19-9.63-54.687l-0.333-6.945l-0.164-3.472l-0.081-1.736
		l-0.004-1.737l0.043-6.949c0.048-2.315-0.012-4.632,0.129-6.943c0.293-4.621,0.51-9.245,0.877-13.854l1.62-13.773
		c5.253-36.617,18.406-71.846,37.52-102.964c19.146-31.15,44.099-58.272,72.804-80.207c28.738-21.909,61.392-38.576,96.118-48.72
		c34.702-10.149,71.439-13.928,107.817-10.617c36.342,3.304,72.388,13.719,104.956,31.212
		c32.612,17.411,61.531,41.798,84.781,70.763c23.246,28.975,40.873,62.621,51.152,98.531c5.184,17.937,8.47,36.43,9.914,55.062
		c0.253,4.664,0.626,9.327,0.709,13.996c-0.006,4.671,0.093,9.344-0.013,14.012c-0.23,4.663-0.403,9.332-0.694,13.99
		c-0.443,4.646-0.908,9.291-1.403,13.93c-4.759,37.017-16.939,73.134-35.885,105.176c-18.916,32.072-44.763,59.752-74.704,81.013
		c-14.984,10.63-30.977,19.672-47.575,27.129l-6.279,2.671l-3.135,1.332c-1.042,0.449-2.085,0.894-3.159,1.269l-6.386,2.359
		l-3.188,1.176l-1.593,0.587l-1.62,0.515l-6.468,2.07l-3.228,1.036l-1.615,0.512l-1.638,0.44l-6.546,1.755
		c-2.187,0.558-4.333,1.252-6.551,1.689C328.797,391.988,292.482,393.841,256.981,389.458z M257.285,386.976l13.238,1.203
		c4.423,0.236,8.852,0.387,13.276,0.549c4.427,0.033,8.856-0.134,13.279-0.19c0.553-0.014,1.106-0.013,1.659-0.038l1.656-0.115
		l3.311-0.229l6.616-0.497l1.653-0.127l1.646-0.205l3.29-0.42l6.574-0.839c2.197-0.225,4.36-0.707,6.533-1.093l6.508-1.214
		c2.177-0.353,4.308-0.95,6.457-1.439l6.428-1.543c2.15-0.475,4.242-1.19,6.358-1.797l6.324-1.888
		c2.12-0.581,4.171-1.395,6.247-2.114l6.201-2.227l1.548-0.556l1.523-0.627l3.041-1.264l6.07-2.529l1.512-0.641l1.482-0.713
		l2.962-1.424l5.914-2.842c0.993-0.454,1.955-0.977,2.914-1.503l2.883-1.562l5.756-3.117c15.189-8.599,29.406-18.735,42.49-30.029
		c26.17-22.62,47.747-49.893,63.866-79.84l2.934-5.663c0.958-1.897,2.014-3.742,2.851-5.699l2.649-5.795
		c0.861-1.941,1.846-3.824,2.592-5.814l2.393-5.899c0.775-1.975,1.661-3.905,2.309-5.928l2.095-6.008l1.05-3.002l0.52-1.502
		l0.447-1.527c5.044-16.189,8.681-32.81,10.624-49.655c3.952-33.675,1.512-67.986-7.241-100.728
		c-8.765-32.728-23.91-63.85-44.536-90.993c-41.299-54.261-103.974-92.254-172.785-102.944c-17.175-2.608-34.655-3.661-52.102-2.805
		c-17.444,0.831-34.844,3.48-51.798,7.943c-33.911,8.899-66.026,25.004-93.406,46.967C97.687-71.001,75.217-43.17,59.328-12.301
		c-7.966,15.429-14.382,31.58-19.14,48.145C35.42,52.407,32.212,69.347,30.5,86.404c-3.343,34.125-0.607,68.62,8.211,101.621
		c8.788,32.989,23.387,64.592,43.443,92.822c10.021,14.109,21.418,27.353,34.105,39.363l4.843,4.413l2.425,2.211
		c0.805,0.742,1.613,1.481,2.469,2.161l5.062,4.183l2.535,2.096l1.268,1.049l1.314,0.986l5.287,3.918l2.649,1.96l1.329,0.976
		l1.37,0.913l5.487,3.657c1.843,1.198,3.641,2.482,5.56,3.557C187.833,370.786,222.076,382.744,257.285,386.976z"/>
</g>
<g>
	<g>
		<g>
			<path fill="#FFFFFF" d="M260.803,195.141c-10.483,3.605-21.766,5.571-33.509,5.571H184.74v92.139h-56.972V9.396h99.526
				c52.01,0,95.011,38.716,99.343,87.685 M270.023,104.703c0-21.455-19.167-38.861-42.729-38.861H184.74v78.423l42.554,0.176
				C250.857,144.617,270.023,126.682,270.023,104.703z"/>
		</g>
		<polygon fill="#FFFFFF" points="325.311,99.253 188.623,300.829 306.07,87.469 		"/>
	</g>
	<g>
		<path fill="#FFFFFF" d="M338.245,101.134c6.73-1.203,13.746-1.825,20.965-1.825c38.686,0,70.689,16.001,83.525,50.292
			l-42.026,29.364c-8.441-16.882-24.794-23.738-40.618-23.738c-21.278,0-37.103,12.31-37.103,26.903
			c0,16.882,21.452,22.684,53.983,37.983c46.949,22.155,76.491,46.069,76.491,89.678c0,51.695-42.202,84.581-102.867,84.581
			c-46.422,0-80.711-19.346-99.702-54.512l45.542-32.004c12.485,20.047,30.597,29.191,55.039,29.191
			c26.727,0,44.665-10.903,44.665-26.026c0-20.749-33.94-37.101-63.656-51.872c-25.795-12.828-53.67-26.693-63.309-55.548"/>
		<polygon fill="#FFFFFF" points="270.295,201.576 406.983,0 289.536,213.36 		"/>
	</g>
</g>
<g>
	<path fill="#FFFFFF" d="M0.433,412.741h22.938c12.645,0,22.979,9.93,22.979,22.088c0,12.117-10.334,22.006-22.979,22.006h-9.808
		v21.236H0.433V412.741z M33.22,434.707c0-4.944-4.417-8.956-9.848-8.956h-9.808v18.074l9.808,0.041
		C28.802,443.908,33.22,439.773,33.22,434.707z"/>
	<path fill="#FFFFFF" d="M81.243,468.952h-26.14l-4.174,9.119H36.744L67.95,411.12h0.405l31.247,66.951H85.376L81.243,468.952z
		 M76.136,457.767L68.193,440.3l-7.984,17.467H76.136z"/>
	<path fill="#FFFFFF" d="M99.517,453.917v-41.176h13.212v41.135c0,7.133,5.633,12.32,11.956,12.32s12.037-5.228,12.037-12.32
		v-41.135h13.212v41.176c0,14.793-11.307,25.572-25.208,25.572S99.517,468.71,99.517,453.917z"/>
	<path fill="#FFFFFF" d="M181.621,466.805l10.497-7.376c2.877,4.62,7.052,6.728,12.685,6.728c6.16,0,10.294-2.513,10.294-5.998
		c0-4.782-7.822-8.552-14.671-11.956c-7.335-3.646-15.4-7.659-15.4-18.074c0-11.308,9.564-18.765,21.561-18.765
		c8.916,0,16.292,3.688,19.25,11.591l-9.686,6.768c-1.945-3.891-5.714-5.471-9.362-5.471c-4.904,0-8.551,2.837-8.551,6.201
		c0,3.891,4.944,5.228,12.442,8.754c10.821,5.105,17.629,10.617,17.629,20.668c0,11.916-9.727,19.494-23.708,19.494
		C193.901,479.368,185.998,474.91,181.621,466.805z"/>
	<path fill="#FFFFFF" d="M249.381,425.669v12.767h22.533v13.091h-22.533v13.495h26.262v13.05H236.25v-65.33h39.393v12.928H249.381z"
		/>
	<path fill="#FFFFFF" d="M348.022,446.906c0,20.508-14.144,32.463-31.166,32.463c-19.25,0-34.408-15.238-34.408-33.881
		c0-18.684,15.238-34.084,33.921-34.084c8.47,0.082,17.508,3.973,23.911,10.213l-7.295,10.902
		c-5.106-4.984-10.942-7.822-16.778-7.822c-10.132,0-20.385,8.592-20.385,20.791c0,11.348,8.835,20.669,21.601,20.669
		c9.321,0,16.008-4.782,16.454-12.645h-16.9v-12.118h30.72C347.9,443.299,348.022,445.122,348.022,446.906z"/>
	<path fill="#FFFFFF" d="M390.208,468.952h-26.14l-4.174,9.119h-14.185l31.206-66.951h0.405l31.247,66.951h-14.225L390.208,468.952z
		 M385.101,457.767l-7.943-17.467l-7.984,17.467H385.101z"/>
	<path fill="#FFFFFF" d="M449.05,478.072l-20.791-30.882v30.882h-13.13l-0.041-65.33h21.317c12.199,0,22.209,9.402,22.209,21.155
		c0,8.39-5.066,15.725-12.077,18.196l18.562,25.979H449.05z M428.219,442.164l8.43,0.04c4.458,0.041,8.43-3.566,8.43-8.227
		s-4.013-8.227-8.43-8.227h-8.43V442.164z"/>
	<path fill="#FFFFFF" d="M505.299,478.072l-20.79-30.882v30.882h-13.131l-0.041-65.33h21.317c12.198,0,22.208,9.402,22.208,21.155
		c0,8.39-5.065,15.725-12.077,18.196l18.562,25.979H505.299z M484.468,442.164l8.43,0.04c4.458,0.041,8.429-3.566,8.429-8.227
		s-4.011-8.227-8.429-8.227h-8.43V442.164z"/>
	<path fill="#FFFFFF" d="M567.263,468.952h-26.141l-4.174,9.119h-14.186l31.207-66.951h0.404l31.247,66.951h-14.226L567.263,468.952
		z M562.155,457.767l-7.943-17.467l-7.983,17.467H562.155z"/>
</g>
<g>
</g>
<g>
</g>
<g>
</g>
<g>
</g>
<g>
</g>
<g>
</g>
<g>
</g>
<g>
</g>
<g>
</g>
<g>
</g>
<g>
</g>
<g>
</g>
<g>
</g>
<g>
</g>
<g>
</g>
</svg>
